<?xml version="1.0" encoding="utf-8"?>
<!-- Uploaded to: SVG Repo, www.svgrepo.com, Generator: SVG Repo Mixer Tools -->
<svg width="800px" height="800px" viewBox="0 0 1024 1024" class="icon"  version="1.1" xmlns="http://www.w3.org/2000/svg"><path d="M823.474259 64.209797l-329.153133 354.472604 329.153133 192.197809-630.876838 350.060878 329.153133-350.060878-329.153133-192.197809z" fill="#FF4893" /><path d="M192.610209 983.322606a22.381518 22.381518 0 0 1-16.316993-37.710668l309.898186-329.581517-304.879048-178.022741a22.378321 22.378321 0 0 1 0.322887-38.832781l630.876838-354.472604a22.381518 22.381518 0 0 1 27.362293 34.737548L529.726827 413.442677l305.029303 178.112254a22.381518 22.381518 0 0 1-0.425188 38.893522l-630.876838 350.060879a22.298398 22.298398 0 0 1-10.843895 2.813274z m45.006-564.266167l295.416216 172.498492a22.371927 22.371927 0 0 1 5.019138 34.654429l-230.912304 245.579694 471.105217-261.407561-295.208417-172.373813a22.381518 22.381518 0 0 1-5.115045-34.552128l231.858587-249.697305-472.163392 265.298192z" fill="#4F46A3" /></svg>